/* XPM */
static char *image[]={
/* width height ncolors chars_per_pixel */
"16 16 256 2",
/* colors */
"   c #3e4046",
" . c #b1a06b",
" X c #7b704b",
" o c #b6b5b5",
" O c #757575",
" + c #d7d8da",
" @ c #918868",
" # c #8a8a8a",
" $ c #5e5842",
" % c #a3a3a3",
" & c #c6bc97",
" * c #8c7e4d",
" = c #939393",
" - c #c3c3c3",
" ; c #6a644e",
" : c #f4eeda",
" > c #7d8087",
" , c #afa483",
" < c #ab9a65",
" 1 c #484847",
" 2 c #76715c",
" 3 c #cdb25d",
" 4 c #5a5b5e",
" 5 c #9d957d",
" 6 c #4c4d53",
" 7 c #cdcdcd",
" 8 c #7d7d7d",
" 9 c #7e8189",
" 0 c #857a59",
" q c #6d6853",
" w c #c5aa55",
" e c #948554",
" r c #9d8c57",
" t c #82764e",
" y c #ebebeb",
" u c #d1c7a3",
" i c #96979d",
" p c #7b7e88",
" a c #8d8772",
" s c #c6b16b",
" d c #565142",
" f c #bbaf87",
" g c #897f5d",
" h c #5e5b50",
" j c #dedfe5",
" k c #bababa",
" l c #a2915a",
" z c #938f80",
" x c #747780",
" c c #9d9fa4",
" v c #6e6958",
" b c #666358",
" n c #545351",
" m c #66604c",
" M c #f1f2f4",
" N c #b7a97e",
" B c #807b66",
" V c #817654",
" C c #454545",
" Z c #cab263",
" A c #a09f9c",
" S c #4a4a4a",
" D c #a89e7d",
" F c #d0b86d",
" G c #c8b989",
" H c #777367",
" J c #837854",
" K c #51514f",
" L c #d0b561",
" P c #7c7251",
" I c #897c55",
" U c #ae9e68",
" Y c #b2a57b",
" T c #706c5d",
" R c #787a81",
" E c #80807f",
" W c #625c4c",
" Q c #8f8050",
" ! c #9c8c58",
" ~ c #e9ebf0",
" ^ c #a59460",
" / c #646155",
" ( c #dbdbdb",
" ) c #6a6451",
" _ c #8b805b",
" ` c #4f5053",
" ' c #818389",
" ] c #96917f",
" [ c #e0e0e0",
" { c #44454a",
" } c #5c5d61",
" | c #a0977b",
".  c #746f60",
".. c #989898",
".X c #78725e",
".o c #c7ac58",
".O c #706a56",
".+ c #969181",
".@ c #b4a881",
".# c #a1987e",
".$ c #757880",
".% c #807f7f",
".& c #808080",
".* c #dee0e7",
".= c #000000",
".- c #000000",
".; c #000000",
".: c #000000",
".> c #000000",
"., c #000000",
".< c #000000",
".1 c #000000",
".2 c #000000",
".3 c #000000",
".4 c #000000",
".5 c #000000",
".6 c #000000",
".7 c #000000",
".8 c #000000",
".9 c #000000",
".0 c #000000",
".q c #000000",
".w c #000000",
".e c #000000",
".r c #000000",
".t c #000000",
".y c #000000",
".u c #000000",
".i c #000000",
".p c #000000",
".a c #000000",
".s c #000000",
".d c #000000",
".f c #000000",
".g c #000000",
".h c #000000",
".j c #000000",
".k c #000000",
".l c #000000",
".z c #000000",
".x c #000000",
".c c #000000",
".v c #000000",
".b c #000000",
".n c #000000",
".m c #000000",
".M c #000000",
".N c #000000",
".B c #000000",
".V c #000000",
".C c #000000",
".Z c #000000",
".A c #000000",
".S c #000000",
".D c #000000",
".F c #000000",
".G c #000000",
".H c #000000",
".J c #000000",
".K c #000000",
".L c #000000",
".P c #000000",
".I c #000000",
".U c #000000",
".Y c #000000",
".T c #000000",
".R c #000000",
".E c #000000",
".W c #000000",
".Q c #000000",
".! c #000000",
".~ c #000000",
".^ c #000000",
"./ c #000000",
".( c #000000",
".) c #000000",
"._ c #000000",
".` c #000000",
".' c #000000",
".] c #000000",
".[ c #000000",
".{ c #000000",
".} c #000000",
".| c #000000",
"X  c #000000",
"X. c #000000",
"XX c #000000",
"Xo c #000000",
"XO c #000000",
"X+ c #000000",
"X@ c #000000",
"X# c #000000",
"X$ c #000000",
"X% c #000000",
"X& c #000000",
"X* c #000000",
"X= c #000000",
"X- c #000000",
"X; c #000000",
"X: c #000000",
"X> c #000000",
"X, c #000000",
"X< c #000000",
"X1 c #000000",
"X2 c #000000",
"X3 c #000000",
"X4 c #000000",
"X5 c #000000",
"X6 c #000000",
"X7 c #000000",
"X8 c #000000",
"X9 c #000000",
"X0 c #000000",
"Xq c #000000",
"Xw c #000000",
"Xe c #000000",
"Xr c #000000",
"Xt c #000000",
"Xy c #000000",
"Xu c #000000",
"Xi c #000000",
"Xp c #000000",
"Xa c #000000",
"Xs c #000000",
"Xd c #000000",
"Xf c #000000",
"Xg c #000000",
"Xh c #000000",
"Xj c #000000",
"Xk c #000000",
"Xl c #000000",
"Xz c #000000",
"Xx c #000000",
"Xc c #000000",
"Xv c #000000",
"Xb c #000000",
"Xn c #000000",
"Xm c #000000",
"XM c #000000",
"XN c #000000",
"XB c #000000",
"XV c #000000",
"XC c #000000",
"XZ c #000000",
"XA c #000000",
"XS c #000000",
"XD c #000000",
"XF c #000000",
"XG c #000000",
"XH c #000000",
"XJ c #000000",
"XK c #000000",
"XL c #000000",
"XP c #000000",
"XI c #000000",
"XU c #000000",
/* pixels */
".&.& E.$ ' Y Z.o.o Z Y '.$ E.&.&",
".& E R.+ < J 2 B q 2 _ < ] R.%.&",
" E R.# ! W J J P V t 0.  ! | R E",
" x.+ r / e W } i i ' v Q H ^ ] x",
" ' < W e K 6 o y 7 o c n e T U >",
" N P P ) { O - - - k k 4 W 0 0 Y",
" Z ) I ` 1.. k o ( - -.& { I.X Z",
" w.O V 6 S = k 7 y - k O { J.O 3",
" w.X V 6 S 8 7 ( ( - # S 6 V m L",
" Z.X _ 6 S 4 k 7 - 7 O S ` J ) F",
" Y g V ) 6 C = ( [ y %   ) P J.@",
" 9 < T ! n   % y y y.* A e W . p",
".$ z l b * a + j ~ M : G h l.+.$",
" E R 5 l ) @.@ & u f P d l.# R E",
".& E R z U _ ; ) W $ X U.+ R E.&",
".&.& E.$ p D s Z Z s , p.$ E.&.&",
};
