/* XPM */
static char *image[]={
/* width height ncolors chars_per_pixel */
"32 32 256 2",
/* colors */
"   c #353a4b",
" . c #ae9852",
" X c #9b9fad",
" o c #776d44",
" O c #696965",
" + c #cccccc",
" @ c #d6ba56",
" # c #9c988a",
" $ c #5f5943",
" % c #7f7964",
" & c #ebd27e",
" * c #938245",
" = c #dbdbdb",
" - c #b2b5bf",
" ; c #545146",
" : c #8c8a83",
" > c #5c5c5c",
" , c #aca282",
" < c #cdb976",
" 1 c #ebdaa1",
" 2 c #9c8846",
" 3 c #716b53",
" 4 c #656978",
" 5 c #e1e0de",
" 6 c #ffdf62",
" 7 c #484744",
" 8 c #b3b3b3",
" 9 c #4d515c",
" 0 c #cbae4b",
" q c #ddc15d",
" w c #62615e",
" e c #a29363",
" r c #7d7d7e",
" t c #5b5954",
" y c #9c8b54",
" u c #4f5052",
" i c #bbad82",
" p c #c3c2bf",
" a c #74767e",
" s c #d9c98e",
" d c #dad3c2",
" f c #3d4150",
" g c #999996",
" h c #8e7b3d",
" j c #e6c965",
" k c #7b7353",
" l c #807f7f",
" z c #e3e6ed",
" x c #ababab",
" c c #959184",
" v c #4b4d53",
" b c #8f8157",
" n c #545864",
" m c #5d616c",
" M c #ebd68c",
" N c #bb9f49",
" B c #f8db7b",
" V c #d3b44d",
" C c #72706b",
" Z c #dcc063",
" A c #6b6444",
" S c #838488",
" D c #a49252",
" F c #a18d46",
" G c #c3b27c",
" H c #585753",
" J c #464953",
" K c #615e53",
" L c #535353",
" P c #cfd0d4",
" I c #434343",
" U c #efe9d8",
" Y c #4b4b4b",
" T c #808080",
" R c #d4d6e0",
" E c #5a533d",
" W c #8d7e4c",
" Q c #949494",
" ! c #54596a",
" ~ c #e0c876",
" ^ c #676a75",
" / c #87763c",
" ( c #7e7e80",
" ) c #c1a64c",
" _ c #dbbc5a",
" ` c #bbbbbb",
" ' c #888683",
" ] c #d5c076",
" [ c #5c5a4f",
" { c #e9ddb3",
" } c #a5914e",
" | c #feef76",
".  c #e3e3e3",
".. c #dad9d7",
".X c #c4a951",
".o c #847954",
".O c #c7c7c9",
".+ c #737788",
".@ c #a3a3a3",
".# c #6d695b",
".$ c #d4d4d4",
".% c #c3c3c3",
".& c #666d83",
".* c #e9e9e9",
".= c #dcc36b",
".- c #7e744b",
".; c #5f6165",
".: c #a2a19f",
".> c #928149",
"., c #5e6372",
".< c #c8cbd5",
".1 c #ffe265",
".2 c #51545e",
".3 c #f2df9c",
".4 c #737681",
".5 c #907e3e",
".6 c #5a5c64",
".7 c #5a574a",
".8 c #66604c",
".9 c #6d6d6d",
".0 c #414552",
".q c #928454",
".w c #b6aa83",
".e c #c5b582",
".r c #7a7d88",
".t c #f7da7a",
".y c #9c9c9b",
".u c #454a5a",
".i c #a99553",
".p c #746e5e",
".a c #696554",
".s c #bca34e",
".d c #8a8a8a",
".f c #e2c256",
".g c #b49b4c",
".h c #998d5c",
".j c #747474",
".k c #daba53",
".l c #eace69",
".z c #e3ce84",
".x c #646463",
".c c #4a4e5b",
".v c #a28d4a",
".b c #dadeeb",
".n c #9d8a4b",
".m c #a49b81",
".M c #e8e8e7",
".N c #454649",
".B c #ceb259",
".V c #817444",
".C c #665d3e",
".Z c #f8e3a0",
".A c #79745c",
".S c #757881",
".D c #e3c45b",
".F c #3a3e4d",
".G c #7f8080",
".H c #caad54",
".J c #4d4b44",
".K c #80807e",
".L c #c9b777",
".P c #595c6a",
".I c #bbae88",
".U c #e3c669",
".Y c #d4bd77",
".T c #fee26b",
".R c #7d796d",
".E c #54524c",
".W c #98874c",
".Q c #a1946b",
".! c #a18f55",
".~ c #9a9583",
".^ c #bca251",
"./ c #b79f51",
".( c #e4ca7c",
".) c #9a8440",
"._ c #4e5262",
".` c #897942",
".' c #6a634c",
".] c #807657",
".[ c #515562",
".{ c #beb086",
".} c #524e43",
".| c #fee86a",
"X  c #837548",
"X. c #626778",
"XX c #c1a650",
"Xo c #dac176",
"XO c #646155",
"X+ c #e2c564",
"X@ c #eaca62",
"X# c #fae075",
"X$ c #d0b455",
"X% c #665e44",
"X& c #686e82",
"X* c #595f70",
"X= c #9b9688",
"X- c #60636e",
"X; c #ffdb69",
"X: c #b0a582",
"X> c #3d424f",
"X, c #696d7a",
"X< c #908d83",
"X1 c #76787e",
"X2 c #5d5742",
"X3 c #625d4a",
"X4 c #907d42",
"X5 c #b89f50",
"X6 c #d3b558",
"X7 c #dabd60",
"X8 c #626671",
"X9 c #8f845a",
"X0 c #e9d693",
"Xq c #aa944e",
"Xw c #d1bd79",
"Xe c #6b7081",
"Xr c #706647",
"Xt c #f0cf68",
"Xy c #76705b",
"Xu c #837a61",
"Xi c #fbe279",
"Xp c #ceba79",
"Xa c #685f43",
"Xs c #bdb088",
"Xd c #686b77",
"Xf c #b7a150",
"Xg c #747889",
"Xh c #000000",
"Xj c #000000",
"Xk c #000000",
"Xl c #000000",
"Xz c #000000",
"Xx c #000000",
"Xc c #000000",
"Xv c #000000",
"Xb c #000000",
"Xn c #000000",
"Xm c #000000",
"XM c #000000",
"XN c #000000",
"XB c #000000",
"XV c #000000",
"XC c #000000",
"XZ c #000000",
"XA c #000000",
"XS c #000000",
"XD c #000000",
"XF c #000000",
"XG c #000000",
"XH c #000000",
"XJ c #000000",
"XK c #000000",
"XL c #000000",
"XP c #000000",
"XI c #000000",
"XU c #000000",
/* pixels */
" T T T T T.K r T.K a.& S i &X; 6.1X; &Xs SX& a.K T (.K T T T T T",
" T T T T.K (.K r.S.~ <X7 ).v.> WX .> F )X7 <.~.S r.K ( l T T T T",
" T T T r T.KX1 : ] @.5.' L mXeX&.u._ n.6.' *X$ ] : a.K T r T T T",
" T T r T.K.4 ,.D.5 Y._ 4.x 3X9.h.V.-.A O.PX, t *.DX:.4.K T r T T",
" T.K.G.K.4 G.k E.0.[.a D.sXf }.W.n }.g.s.nXy.r.P $.k G.S.K.G.K T",
".K (.K.4 G V.JX- > 2.X.qXO.N.c mX-.6 L.7.q.X D >X,.E 0 G.4.K (.K",
" (.K aX:.k.J mXO.X D L v.N O g.:.@.y.y ( J u.! ).# ( H.kX:.4.K (",
".K r :X@ E.6 [ 0.o.0 L Y.x.@ 8 8 x.@.y x.y t f.] 0.R.4X3X@ : r.K",
".K.4Xo h.0.x.X.o.0 t Y >.@ + =. .$ ` x.@.%.y L.0 k ) w.P.>Xo.S.K",
" a.~.k.J 9.n D.0 L L Y.d 8 =. .  = + ` 8.% 8.j.E.0.!.vX8 L _.~X1",
".&XwX4 f.8.X L L L L L.y 8.$.$ + +.% 8 ` ` 8 T Y L L.X %.[.>.Y.&",
" S ZX2._ }.q J L L Y.x x x x 8.@ 8.% 8 `.% ` r Y H J.q.v.[.8X+ S",
".{XX.N.xXX K L L L Y.9 + ` x x.%.%.$.$ 8.% `.y > L L t.s.x.6.X.w",
" &.v J 3./ v L L L Y.j.* `.@ 8. .*.*.$ ` 8 `.$.9 Y L v.gXu.[.v.(",
".T.`.u.o.i J L L L Y.j +.@.@ x =. .  + ` x `.% > L L J D.Q._ WX#",
".|.V.c.q y J L L L Y.9.% ` 8.$ =. . .% ` x.%.d Y L L J y.q.FX  |",
".T.VX* e y J L L L Y > 8 8.$ =.$.  = + ` 8 Q L L L L J y W  X  |",
".T.` !.o.i J L L L L L ` x.% +.$.$.$ + 8 x > Y L L L J.iX9 f.>Xi",
" &.v.[XyX5 v L L L L Y.y ` =.*. .% + ` 8 8 > L L L L v.^ 3X> ..(",
".I.X.x.j.sXO L L L L Y >.@ ` ` 8 `.% +.$ 8 L L L L L K.^ L Y.B ,",
" T Z.'.,.v y J L L L L I T +.% + = = = = +.x Y L L J.q.n.u.8.U (",
".&Xp 2 n.a.X L L L L L Y.9.$.  =. . .*.  =.@ Y L L L.H.p.0.nXwX&",
"X1 c.k t n.n.i.0 L L L Y r.$.$ =. .*.*. .  +.d LX>.i.n.[.E.D.~X1",
".K.4.Y.) m (.s b.0 L > I Q +.$. .*.*.*.*.  = p X.Q N L J.vXo.S.K",
".K r TX@XaXd t ).q J I w.%.$. . . . .*.* 5 =.b {X$ O.[X%Xt ' r T",
" (.KX1.m.k ;.6 w.sXq C - P =.%.. =. .M z R.*.Z.s H.6.E.D.m.S.K (",
".K (.K.4 i.k.} ^.;.` Z s d.O R.< z z.* U 1.=.` v n.J.D i.4.K (.K",
" T.K (.K.S.w.f.C nX8 t y.s.=.zX0.3 M ~.X /.E.[.0Xa.D i.S.K (.K T",
" T T.K (.K.4.m j F K.PXg.;.7 k.- o A.# L f.F ; F.l.m.4.K ( l T T",
" T T T.K (.KX1 T.L @ FXr t.2.[X. !._.0 7.C F qXw T.S.K (.K T T T",
" T T T T.K (.K r.4 : G ZX$.g 2X4 * 2.gX6.U GX<.4 r.K (.K T T T T",
" T T T T T.K r T.K rX&.+ #.e.( B.t.(.eX=.4X& r.K T r.K T T T T T",
};
