/* XPM */
static char *image[]={
/* width height ncolors chars_per_pixel */
"64 64 256 2",
/* colors */
"   c #0d1016",
" . c #ab9943",
" X c #9a9894",
" o c #746a3c",
" O c #d8cba2",
" + c #e3c14b",
" @ c #4d4931",
" # c #686866",
" $ c #afb1b8",
" % c #9c988d",
" & c #dbdbdb",
" * c #8d8b82",
" = c #675b35",
" - c #3c382e",
" ; c #fad353",
" : c #76787d",
" > c #91813b",
" , c #494946",
" < c #d0b76a",
" 1 c #c7ab42",
" 2 c #b8b8b6",
" 3 c #cbcbcb",
" 4 c #e2c567",
" 5 c #5b5953",
" 6 c #51504c",
" 7 c #afa994",
" 8 c #e0e0df",
" 9 c #26282d",
" 0 c #80807e",
" q c #f8d66a",
" w c #363941",
" e c #a28d3d",
" r c #89763a",
" t c #c9ae58",
" y c #cfd0d1",
" u c #565860",
" i c #baab7a",
" p c #bbbec6",
" a c #6f7072",
" s c #e4ce89",
" d c #ffe056",
" f c #e9e8e6",
" g c #949186",
" h c #a7a293",
" j c #34322c",
" k c #7a7975",
" l c #ad9858",
" z c #eeca4c",
" x c #53555a",
" c c #7e828c",
" v c #f3d264",
" b c #3f4044",
" n c #f9d563",
" m c #d5b957",
" M c #756b4f",
" N c #beb494",
" B c #92824f",
" V c #464952",
" C c #4e5052",
" Z c #a08e57",
" A c #dec36b",
" S c #1b1c1e",
" D c #7d7e81",
" F c #635e51",
" G c #37383c",
" H c #e7dec3",
" J c #7e8083",
" K c #535353",
" L c #d4b65a",
" P c #5b594a",
" I c #585754",
" U c #a99d79",
" Y c #808080",
" T c #8c7e55",
" R c #5b5233",
" E c #d0b243",
" W c #5f6065",
" Q c #8f9199",
" ! c #fad65b",
" ~ c #7c7c7d",
" ^ c #3e4149",
" / c #6f737f",
" ( c #e2e4eb",
" ) c #c7c0a8",
" _ c #bba253",
" ` c #ccb879",
" ' c #ecd691",
" ] c #2e3139",
" [ c #807f7d",
" { c #fbde87",
" } c #f4d154",
" | c #ece7d8",
".  c #e3c873",
".. c #c2b179",
".X c #f0d374",
".o c #46484b",
".O c #bbbbbb",
".+ c #a9a8a7",
".@ c #262830",
".# c #e3e3e3",
".$ c #c3c3c3",
".% c #bba142",
".& c #e3c257",
".* c #9d8a4c",
".= c #45433c",
".- c #cacdd4",
".; c #877534",
".: c #57585b",
".> c #9ea0a4",
"., c #b1b0af",
".< c #87898f",
".1 c #c3c6cd",
".2 c #dbdce3",
".3 c #b3b3b3",
".4 c #504f4d",
".5 c #aca282",
".6 c #a49245",
".7 c #696b73",
".8 c #97989c",
".9 c #63656b",
".0 c #fedc5b",
".q c #dad8d1",
".w c #c7ab53",
".e c #232426",
".r c #4b4b4b",
".t c #a3a5af",
".y c #453e2a",
".u c #acadb2",
".i c #fee25b",
".p c #d3d3d3",
".a c #a3a3a3",
".s c #434343",
".d c #9e8d3a",
".f c #7c714f",
".g c #edca5a",
".h c #ababab",
".j c #494c52",
".k c #eaebf1",
".l c #d3be7c",
".z c #9c9c9b",
".x c #c0aa65",
".c c #baa35a",
".v c #fddb61",
".b c #6a6349",
".n c #9c9da0",
".m c #706237",
".M c #8b8d92",
".N c #d1b764",
".B c #62605d",
".V c #3c3c3b",
".C c #6b6b6a",
".Z c #5b5b5a",
".A c #ceb24b",
".S c #ebcc6a",
".D c #e9e9e9",
".F c #504b3c",
".G c #fedb55",
".H c #b5aa85",
".J c #8d7b42",
".K c #ffe460",
".L c #9a9688",
".P c #413e38",
".I c #2a2c33",
".U c #767982",
".Y c #ada58c",
".T c #5a5648",
".R c #2f3030",
".E c #efd06d",
".W c #706f6d",
".Q c #ac944b",
".! c #949494",
".~ c #908e8b",
".^ c #787776",
"./ c #bca14a",
".( c #eac655",
".) c #5d553b",
"._ c #aa9656",
".` c #292826",
".' c #71706f",
".] c #eeca53",
".[ c #f5dc8e",
".{ c #707482",
".} c #8c8b8a",
".| c #ddc474",
"X  c #636363",
"X. c #737372",
"XX c #e4e0d5",
"Xo c #c8ac4a",
"XO c #43454b",
"X+ c #3b3c43",
"X@ c #d0b252",
"X# c #988648",
"X$ c #22242c",
"X% c #7c6f3a",
"X& c #b5a043",
"X* c #32343b",
"X= c #a49d86",
"X- c #2c2f38",
"X; c #d2bc75",
"X: c #eacd72",
"X> c #9b8a55",
"X, c #dcbd4b",
"X< c #b49e55",
"X1 c #84763d",
"X2 c #c1b285",
"X3 c #322f26",
"X4 c #aa9343",
"X5 c #434035",
"X6 c #cab363",
"X7 c #baac81",
"X8 c #f5de95",
"X9 c #958545",
"X0 c #737888",
"Xq c #5c5e64",
"Xw c #858790",
"Xe c #e9c44b",
"Xr c #444750",
"Xt c #625630",
"Xy c #f3d36a",
"Xu c #534c33",
"Xi c #8f8053",
"Xp c #dbc378",
"Xa c #9c8743",
"Xs c #b1a682",
"Xd c #3a3933",
"Xf c #7a6c41",
"Xg c #ddbe58",
"Xh c #2b2b2c",
"Xj c #686252",
"Xk c #d4c183",
"Xl c #343433",
"Xz c #938353",
"Xx c #555760",
"Xc c #fddc71",
"Xv c #b39a47",
"Xb c #817551",
"Xn c #635c3b",
"Xm c #c0a753",
"XM c #93918b",
"XN c #8e7c3d",
"XB c #f4d15a",
"XV c #d9bd63",
"XC c #b8a362",
"XZ c #f1cc54",
"XA c #635c43",
"XS c #13151c",
"XD c #72747b",
"XF c #838589",
"XG c #252730",
"XH c #544f42",
"XJ c #917e44",
"XK c #847543",
"XL c #1d1f26",
"XP c #cab983",
"XI c #b09747",
"XU c #a59256",
/* pixels */
" Y Y Y Y Y Y Y Y Y Y Y Y Y Y Y Y Y ~ J Y 0 0 ~.{X0XF X.5Xk <XV.X.XXVX6Xk.5 %XFX0.{ ~ 0 0 Y D ~ Y Y Y Y Y Y Y Y Y Y Y Y Y Y Y Y Y",
" Y Y Y Y Y Y Y Y Y Y Y Y Y Y Y ~ D Y 0 ~ : D * U `.S.v.v.0.0.0.0.0.0.0.v.v.v.S.l.5 * J : ~ 0 Y D ~ Y Y Y Y Y Y Y Y Y Y Y Y Y Y Y",
" Y Y Y Y Y Y Y Y Y Y Y Y Y 0 ~ Y 0 ~.U Y.5X;.v.i.G.(Xo eXJ.mXt =Xt =.m r eXo.].0.i.vXp.5.}.U ~ 0 Y ~ 0 Y Y Y Y Y Y Y Y Y Y Y Y Y",
" Y Y Y Y Y Y Y Y Y Y Y Y ~ J Y ~.U.}X2Xy.i.GXo r.)XdX*.j.@XD.M ^.9 VXq VXO.I j R.JX@.G.iXyX2.}.U ~ Y J ~ Y Y Y Y Y Y Y Y Y Y Y Y",
" Y Y Y Y Y Y Y Y Y Y Y ~ Y 0 ~ YX2 q.i.]XaXu.V V.I.MX .aX. X.ZXMX .C.C.C Y.ZX. JX+ 9XuXa.].i qX7 Y ~ 0 Y ~ 0 Y Y Y Y Y Y Y Y Y Y",
" Y Y Y Y Y Y Y Y Y 0 ~ Y ~ DX= 4.iXZXNX5.IX+ ~ ~.B.BX.X. Y.z.! Y.s xX  KX. ~.C 5 YX. :.IX5XJXZ.iX:X=.U ~ Y D 0 Y Y Y Y Y Y Y Y Y",
" Y Y Y Y Y Y Y Y 0 D Y ~ JX2.v.GX4 -X+.s Y.Z ~ K.!X*.7X+XO.rX XdX5Xd ,X* x.j D.}.r YX..z xX$Xd.Q.0.0XPXF ~ 0 D 0 Y Y Y Y Y Y Y Y",
" Y Y Y Y Y Y Y 0 D 0 ~.~.|.i.& RX*X+.W #.r [.9.M.r @X1 ..A + + } }.] +.AX4X%XA KX$XF ,.z.C.aXDX$ R.&.i. XM ~ 0 D ~ Y Y Y Y Y Y Y",
" Y Y Y Y Y Y 0 D 0 :XM.X d./ -.I.r YXl YXO.j @ >X,.0.0.g L _ lXUXU._.c L.g.0.GX,.6Xu.rXq.a.V.}X XO j _ d.E g : 0 D 0 Y Y Y Y Y Y",
" Y Y Y Y Y 0 D 0 :.LXy.GXa.I.Z [.r KX..I.bX&.0.0 t TXj K.j VXrXOXOXOXO.j KXj T t !.0Xo R.9.a *.V., b 9.*.i v h : 0 D 0 Y Y Y Y Y",
" Y Y Y Y Y ~ 0 ~XM v.GXJ.@.s kXl.!.I.FX&.G.gX> F.j V K K.r , K.Z.B.Z K.r.s.o.j.j 5Xz.(.iXv PX$.! K Y YXS B.0Xy g : 0 D Y Y Y Y Y",
" Y Y Y Y ~ Y ~XM.E.G.JXL ~.CX .! xX% } !X> K.j C K I.r.sX .}.z.z.z.z.!.} ~X .r.4 C.j KXzXB }XKXO K.z K.a   B.0.SXM ~ Y ~ Y Y Y Y",
" Y Y Y ~ Y ~XF.  dXaX* Y.s.CX .VX4.i.w 5.j K K K K.r.s Y.z.z.z.!.!.z.z.z.z.h.!.Z.4 K K.j 5 _.iX4.BXO.!X.X XGXU.i. XF ~ Y ~ Y Y Y",
" Y Y 0 J 0 DXP.i./X$.r K Y.s.=Xo.iX>.j C K K K K.s.s Y.!.z.z.z.a.a.a.z.z.!.!.3.3 ~ K 6 K K.jXz.i 1 5 D Y.z.}.IX6.GXP D 0 Y 0 Y Y",
" Y Y D 0 :X=.v.& j.: ~ K b.4.A.0Xb V K K K K K.s.V Y.z.a.h.3.3.O.3.a.a.a.z.z.!.h.O Y.Z.r K K V M.0X,.=.>.V.3X*Xd.S.0.Y : 0 ~ Y Y",
" Y 0 Y ~ Y.S.G R.IX.Xl.!.VXo.0 M.j K K K K K.r.V Y.z.h.O.$ 3 3.O.O.3.h.h.a.a.z.z.O.3.! K.r K K.jXj.0.A K.u.s Y xXA.0.S Y ~ 0 0 Y",
" Y D 0.UX7.i.Q.I.r K.} uX4.iXb.j I K K K K K.V ~.z.h.$ 3.p &.#.# &.p.O.3.3.h.a.z.$.O.h.!.r K K K.j M.0./XL.C.h.rX$.c dXP D 0 D Y",
" 0 0 ~.}Xy.] jX+.CX. ^X%.iXz V K K K K K.Z.V.Z.z.z.3 3 &.#.D.D.#.# & 3.$.O.3.a.a.$.$.h.h ~.r K K K VXi.iXJ.7.`.}X.Xd v nXM ~ 0 Y",
" ~ 0.UX2.iXJX*.C.V.j.T }.w.j K K K K K K K.s Y.z.a.O.p &.#.#.#.#.#.p 3 3.$.h.h.h.$ 3.3.h.z.Z K K K K.j _.0.y ~X..ZX$ Z.i...U 0 ~",
" Y ~.}Xy.] -.s.r ~X+.%XB 5 K K K K K K K.s.r.!.z.h.3.p.# & &.#.# & & 3 3.$.3.3.3 3.O.O.3.h.C.r K K K K 5.g.wX+ Y YX .P v v.} ~ Y",
" 0.U.H.iXa.IX. # GXn.iXz V K K K K K K K.V.C.!.a.h.O.p.D 3 &.#.p.$.$.$.O.3.3.O.3 3.3.3.3.h.C.r K K K K.jXz.G.fXFXd.!X$._.i.H : 0",
" 0 D.|.GXuXl.V K x./.g K K K K K K K K K.V ~.!.h.h.O.$.$ 3.O.O.3.$ 3 3.3.a.O.O.3.$.$.3.3.h.C.r K K K K K K.&XoXq Y KX+.T.0.  J 0",
"XD g.vX@.IX X. K @.0X>.j K K K K K K K K.V Y.a.h.3.3.z.3.$.z.a.h.3.$ 3.$.h.3.3.O.$ 3.h.h.h.C.r K K K K K.jXz.0 RX*X. YX$XV.v % ~",
".{Xs.i.JX+X .s DXa ! 5 C K K K K K K K K.s.a.h.a.3.$.a.a.3.a.O.z.h.3.O.$.O.O.O.O.O.p.O.3.3.C.r K K K K K K IXB.Q.7 K.ZX+Xz.iX7XD",
".{X;.0.)X$.Z Y K + t.j K K K K K K K K K.s.3 3.a.h 3.z.3.h.h.p.h.3.3.$ 3 & 3.3.O.O.p.$.h.3 Y K K K K K K K.j.c.(.V.C.3.j.).iX;.{",
".<.S.(XlX .WXqXu.0 T.j K K K K K K K K K.V.a.# 3 &.p Y.$.a.a.p.p &.#.#.#.D 3.3.O.O.p.3.O.O.3.!.r K K K K K.jXb.G M.j.rX.Xd.gXyXw",
" %.v.wXh K.s.jXJ.0Xj C K K K K K K K K K.s.3 &.D &.!.} 3.z.a &.#.#.#.# &.# 3.O.O.3.O.h 3.$.p.a.s K K K K K K 5 !XN.9.~.CX$ L.v.~",
".H.vX4X* ~ ~.jXv.( K K K K K K K K K K.r.r.3.p & 3 Y.a.3.a.3.D.#.#.D.D.#.#.$.O.O.3.a.h.O.p.p.!.s K K K K K K.j.&./XO 0X X$X<.0.Y",
"Xk.0.J.I.r.s b.A t.j K K K K K K K K K.s K.h.$ &.O ~.$.h.a.3.D.#.#.D.D.# &.O.O.O.h.h.3.O 3 3 Y.s K K K K K K V t 1 YX X. ^Xz.i i",
".N.0.m.j Y Y.Z +X< V K K K K K K K K K.s K.h.3 3.a ~.O.a.h.z.$.D &.#.# &.p.O.O.3.h.3.h.$.p.3.Z.r K K K K K K V lXe kXDX. wXb.0 s",
".X.0.m.I ,.VXdXZXUXr K K K K K K K K K.r.r.h.3.p 3.a Y.h.$.3.$.p.# &.# & &.O.O.O.3.3.z.O.$ Y.r K K K K K K K V Z }X5.r.r.@.f.0.[",
"Xy.vXn.j Y.M.B zX>.j K K K K K K K K K K.V.z.O.$.O.$ 3 3.#.D.#.p.#.#.# &.p.3.$.O.O.h.h 3.O.r K K K K K K K K.jXz ; FXq.W.s.b.0.X",
".X.v =.9 KX. kXeXU V K K K K K K K K K KXl.}.$.h.h.$.p.p.D.D.D.D.#.#.# &.p.$.$.O.3.h.$.OX..r K K K K K K K K.jX> ;.FX+.s.I M.0.X",
"X:.0.m.I 0XF.sXZ._ V K K K K K K K K K KXl ~.O.a.a.3.$ 3.$.$.$ 3.#.# &.p & 3.O.O.h.a.a K.r K K K K K K K K K VXUXZ.T x #X+.f.0X8",
"X6.0XfX* ~ Y.4 + _ V K K K K K K K K K K.VX..$.$.z.a 3 & 3.O.p.O.p.#.p 3 & 3.O.3.a.3.}.s K K K K K K K K K K.j l.].s.Z.rXL T.0 s",
"Xk.v.JXO.C.sX+.A L.j K K K K K K K K K K.V.C.O 3.h.h.O.$.$.#.D & 3 & 3 &.p.$.O.3.a.O ~.r K K K K K K K K K K.j t.A.9.r.C ]X>.0 i",
".5.vXv 9.}.! uX4.g K K K K K K K K K K K.s K.h.3.3 3 &.D.#.#.D.# & 3 3.#.$.O.O.h.h 3.C.r K K K K K K K K K K C.&./.7 6.C ].c.0 7",
" X nX@X*.C.=X+X1.0Xj.j K K K K K K K K K K.V.!.a.h.O.p.#.D.D.D & 3.O.p.$.3.$.3.3.O 3X .r K K K K K K K K K.j F.0.J.I 5.r.IXV.v.}",
"XF.SXB j.:.z.8Xj ;Xz V K K K K K K K K K K.s K.a.a.3.$ 3.p 3.O.3.3.O.O.3.$.O 3.$.p.O.Z K K K K K K K K K K.j T.G.b.9.Z.r.= n.S c",
"X0 `.i R DX X .C E L.j K K K K K K K K K K K.V.Z.z.h.3.h.h.z.a.3.O.O.$.$ 3.#.p.p.$.a K K K K K K K K K K K.j t.&.s.V.ZX+.b.iX;.{",
" / U.i.*X*.z ~XOX#.0Xj C K K K K K K K K K K.ZXl ~.3.$.$.O.O 3 3 3.p 3.p.D.p.p.p 3 3.Z.r K K K K K K K K K 5 !Xa.j.CX..@ l.iXsXD",
" ~ * n.&.e.r ~ :.F ;._ V K K K K K K K K K K.Z.VX .3.$ 3 3 3 3.p & &.#.#.p.p &.# &.p.! K K K K K K K K K.jX>.G.bXO.s KX* 4 nXM ~",
" 0 DX;.0 R.7 #.s uXvXB 5 K K K K K K K K K K K.s K.3 3 & & & &.#.#.D.#.p.#.D.#.# &.p.O ~.r K K K K K K K K.g./X+X  YXO.b.0.| D 0",
" 0 :.Y.iX<XL k.}XO.).0XU V K K K K K K K K K K.r.s.a 3.#.D & &.#.#.#.#.D.D.D.D.# &.p.$.a.Z.r K K K K K V Z.G MXDX .VX$.x.0.H : 0",
" Y ~XF.S !.=X .sX.Xx e.0Xj.j K K K K K K K K K K.s.z.O &.# &.# & &.D.D.D.D.D.D.#.# &.p.O.z K.r K K K.j F.0X4XD.sX  x.F.v.S Y ~ 0",
" ~ 0.UXs.i._XL.a K.V , + m C K K K K K K K K K.s K 3.O.p &.p.p.#.D.D.D.D.D.D.#.D.# & & 3.3.!.Z.r 6 K.jX@XBX5.VX. ~.IXC dX2.U 0 D",
" Y 0 ~ Y.S.0.F b.Z.z Q.f.i l V K K K K K K K K.VX .p 3 & 3 3.#.D.D.D.D.D.D.#.D.D.#.# &.p.$.h.h Y.Z ^XU.i =.9.Z.r.I.T.vXy.} ~ Y 0",
" Y D 0 :Xs.i.wXS.h.s.}.9.;.KXz V K K K K K K.ZXl Y.$.O 3.p.D.#.#.D.D.D.D.#.D.D.D.D.# & &.$.O.3.h.t U.iXa x j.Z [.@.N.GX7.U 0 ~ Y",
" Y 0 0 ~ D. .iXf w.3 :X. x e.i T V K K K K K.r.s.h.$.O.$.D.#.#.#.#.D.# &.D.D.D.D.D.D.#.p.p 8 3 p N.iXvXOX  ~X XS T.i.  Y ~ Y Y Y",
" Y Y D 0 ~.L.vXBX5XL ~ Y G.jXv.iX> V K K K K.V.z.$ &.#.p &.#.#.#.#.#.p.#.D.D.D.D.# &.p &.#.#.2 O.G./X  D.C K.oXH v !X= ~ 0 ~ Y Y",
" Y Y 0 D 0.U.H.0 L.e Y.s.} K.e.6.iX< K.j KXl.z.O.$ &.#.D 3.p.D.#.#.p.#.D.#.D.D.D 3 &.D f (.# '.G _Xh.}.V ~.sXh 4.GX2.U 0 D Y Y Y",
" Y Y Y 0 Y 0 D.l d _   ~X..V.z WX1.i.& MX*.> &.+ 3 &.#.p.$.a.p.D.p &.D.#.#.D.D.D.p.q.k.k HXc.GXN xX Xh.}.C 9X6.GXp D ~ Y 0 Y Y Y",
" Y Y Y Y ~ Y ~ Y.| d.Q.I.V.!Xh.! wXnX,.G < |.u.u.p &.p.3 3.#.$ 3 &.D.#.#.#.# f.D.D.1XXX8.0X, RXq.VX.X..RXLXC d.  Y ~ Y ~ Y Y Y Y",
" Y Y Y Y Y ~ 0 ~.}.X d.QXL.9.!.C kXqXhX9 z.0Xp N y.- $ 3 &.# 3.$.D.#.#.#.# ( (.2 ) s.v zXN.s.j.s ~ 5.Z.IXC.G.X.! ~ Y D Y Y Y Y Y",
" Y Y Y Y Y Y D 0 ~XMX: dXmXhX+.Z.!Xh.!.@ P >X,.0Xc.l O.q.p.- p ( ( ( (.#XX HX8Xy.GXeXa.T.7.j.C.r.Z.jXhX6 d.XXM : 0 D 0 Y Y Y Y Y",
" Y Y Y Y Y Y 0 D 0 ~ Y.| dXg.yX+X .}.Z.C.C ] k oX& z.G.0Xc.X {X8 { { {Xc.v ; +.%X% 6.@.7Xl.C.r kXL.F 4 d.|XM ~ Y D 0 Y Y Y Y Y Y",
" Y Y Y Y Y Y Y 0 D 0 ~XFXk.0 !XK S.9X .+.V X YXwX+ 6XnXN.d.% 1 E E 1.% eX1.f 6XO w x.V KX X..I.eXz !.0.l Y ~ Y D 0 Y Y Y Y Y Y Y",
" Y Y Y Y Y Y Y Y 0 D Y ~ D.5 n.iX@Xu.I.9 5.z.r X ~XO.9X- xXD b.s.V.oXOX+.j D a K.Z.V.^.VXO.IXA L d n.H D ~ Y D 0 Y Y Y Y Y Y Y Y",
" Y Y Y Y Y Y Y Y Y 0 ~ Y 0.UXMX;.0.i _Xu.e u.n.r.a.r [ , k.r YX..r ~ K # 5 K 6.4.Z.rX*.IXu _.0.0Xp.L.U 0 Y ~ 0 Y Y Y Y Y Y Y Y Y",
" Y Y Y Y Y Y Y Y Y Y Y ~ Y 0 ~ DX= A.i.0.w.mX3XL xXOXF.Z.}.' ~ 2 6.z K.}.V.9 xX$X$X5 o.w.0.iX:.5 D ~ 0 Y ~ Y Y Y Y Y Y Y Y Y Y Y",
" Y Y Y Y Y Y Y Y Y Y Y Y 0 D Y 0 ~ DX=.|.v.iXZ./X% @XdXhX+ VX$ xX* V ]X*.I jXuXK _.].i.v A.5XF : [ Y D ~ Y Y Y Y Y Y Y Y Y Y Y Y",
" Y Y Y Y Y Y Y Y Y Y Y Y Y Y ~ Y Y 0 : J.L i.S.K.i.0.(.AXI >X9X%X1XNXaXvX@.].0.i.vXy...L J : ~ 0 Y ~ Y Y Y Y Y Y Y Y Y Y Y Y Y Y",
" Y Y Y Y Y Y Y Y Y Y Y Y Y Y Y 0 ~ Y 0 0 ~.UXF.L.HXp.S n.v.i.i.i.i.K.i.v n.S.| i.LXF D ~ 0 Y Y ~ Y Y Y Y Y Y Y Y Y Y Y Y Y Y Y Y",
" Y Y Y Y Y Y Y Y Y Y Y Y Y Y Y Y Y 0 ~ Y Y 0 [ ~XD.U.U.} *.Y NX7X7 N.Y *.}.U.U.{ ~ [ 0 Y Y ~ 0 Y Y Y Y Y Y Y Y Y Y Y Y Y Y Y Y Y",
};
